# xmcd
#
# Track frame offsets:
#	150
#	18535
#	36375
#	54280
#	72342
#	90857
#	107315
#	125420
#	142307
#	157132
#	179780
#	196920
#	216737
#	233030
#	245905
#
# Disc length: 3525 seconds
#
# Revision: 1
# Processed by: cddbd v1.5.2PL0 Copyright (c) Steve Scherf et al.
# Submitted via: audiograbber 1.83.01
#
DISCID=e30dc30f
DTITLE=8000 Book - SC8608
DYEAR=1900
DGENRE=
TTITLE0=McCoy, Neil - Forever works for me
TTITLE1=Hill, Faith - Bringing out the elvis
TTITLE2=Rascall Flats - Prayin for daylight
TTITLE3=Walker, Tamara - Askin too much
TTITLE4=Wariner, Steve - Faith in you
TTITLE5=Asleep at the wheel - Cherokee Maiden
TTITLE6=Keller, Joanie - Three little teardrops
TTITLE7=Redman and Vale - Squeezin the love outta you
TTITLE8=Brooks and Dunn - You'll always be loved by me
TTITLE9=Dixie Chicks - Cowboy Take me away
TTITLE10=Isaacs, Soyna - On my way to you
TTITLE11=Hill, Faith - Breathe
TTITLE12=Ashton, Susan - Closer
TTITLE13=Austin, Sherrie - Little Bird
TTITLE14=Messina, Jo Dee - Because you loved me
EXTD=
EXTT0=
EXTT1=
EXTT2=
EXTT3=
EXTT4=
EXTT5=
EXTT6=
EXTT7=
EXTT8=
EXTT9=
EXTT10=
EXTT11=
EXTT12=
EXTT13=
EXTT14=
PLAYORDER=
